<svg xmlns="http://www.w3.org/2000/svg" width="1280" height="980" viewBox="0 0 1280 980">
  <rect width="1280" height="980" fill="#f4eef8"/>
  <text x="40" y="42" font-family="Helvetica, Arial, sans-serif" font-size="22" font-weight="700" fill="#1f1a24">Built so far</text>
  <text x="188" y="42" font-family="Helvetica, Arial, sans-serif" font-size="16" fill="#5c5366">Lanternfield Goods. The documented lab is complete.</text>

  <rect x="32" y="64" width="1216" height="248" rx="12" fill="#ffffff" stroke="#d9d0e2"/>
  <text x="52" y="92" font-family="Helvetica, Arial, sans-serif" font-size="13" font-weight="700" fill="#6b6474">JML PATH. THIS CHAIN RUNS</text>

  <rect x="52" y="112" width="176" height="92" rx="8" fill="#d7e8fb" stroke="#3d6f9c"/>
  <text x="66" y="146" font-family="Helvetica, Arial, sans-serif" font-size="15" font-weight="700" fill="#16324a">HR source</text>
  <text x="66" y="168" font-family="Helvetica, Arial, sans-serif" font-size="13" fill="#16324a">hr/employees.json</text>
  <text x="66" y="186" font-family="Helvetica, Arial, sans-serif" font-size="12" fill="#16324a">source of truth</text>

  <line x1="228" y1="158" x2="250" y2="158" stroke="#3d6f9c" stroke-width="1.5"/>
  <polygon points="250,152 250,164 262,158" fill="#3d6f9c"/>

  <rect x="264" y="112" width="176" height="92" rx="8" fill="#d9f2df" stroke="#3d8b4f"/>
  <text x="278" y="146" font-family="Helvetica, Arial, sans-serif" font-size="15" font-weight="700" fill="#1d4a28">hr-sync</text>
  <text x="278" y="168" font-family="Helvetica, Arial, sans-serif" font-size="13" fill="#1d4a28">scripts/hr-sync</text>
  <text x="278" y="186" font-family="Helvetica, Arial, sans-serif" font-size="12" fill="#1d4a28">diff, classify, dry-run</text>

  <line x1="440" y1="158" x2="462" y2="158" stroke="#3d6f9c" stroke-width="1.5"/>
  <polygon points="462,152 462,164 474,158" fill="#3d6f9c"/>

  <rect x="476" y="112" width="200" height="92" rx="8" fill="#d9f2df" stroke="#3d8b4f"/>
  <text x="490" y="146" font-family="Helvetica, Arial, sans-serif" font-size="15" font-weight="700" fill="#1d4a28">Okta Workflows</text>
  <text x="490" y="168" font-family="Helvetica, Arial, sans-serif" font-size="13" fill="#1d4a28">Joiner, Mover, Leaver</text>
  <text x="490" y="186" font-family="Helvetica, Arial, sans-serif" font-size="12" fill="#1d4a28">plus Access Request</text>

  <line x1="676" y1="158" x2="698" y2="158" stroke="#3d6f9c" stroke-width="1.5"/>
  <polygon points="698,152 698,164 710,158" fill="#3d6f9c"/>

  <rect x="712" y="108" width="220" height="100" rx="8" fill="#f8d7a8" stroke="#b86a1d" stroke-width="1.5"/>
  <text x="728" y="142" font-family="Helvetica, Arial, sans-serif" font-size="16" font-weight="700" fill="#5c3308">Okta org</text>
  <text x="728" y="164" font-family="Helvetica, Arial, sans-serif" font-size="13" fill="#5c3308">cap of 10 active users</text>
  <text x="728" y="182" font-family="Helvetica, Arial, sans-serif" font-size="13" fill="#5c3308">trial-7464750</text>
  <text x="728" y="198" font-family="Helvetica, Arial, sans-serif" font-size="12" fill="#5c3308">groups, policies, System Log</text>

  <line x1="932" y1="158" x2="954" y2="158" stroke="#3d6f9c" stroke-width="1.5"/>
  <polygon points="954,152 954,164 966,158" fill="#3d6f9c"/>

  <rect x="968" y="112" width="256" height="92" rx="8" fill="#d9f2df" stroke="#3d8b4f"/>
  <text x="982" y="146" font-family="Helvetica, Arial, sans-serif" font-size="15" font-weight="700" fill="#1d4a28">Rostr</text>
  <text x="982" y="168" font-family="Helvetica, Arial, sans-serif" font-size="13" fill="#1d4a28">SAML, OIDC, SCIM</text>
  <text x="982" y="186" font-family="Helvetica, Arial, sans-serif" font-size="12" fill="#1d4a28">rostr.lanternfieldgoods.co.uk</text>

  <rect x="52" y="220" width="176" height="72" rx="8" fill="#d7e8fb" stroke="#3d6f9c"/>
  <text x="66" y="248" font-family="Helvetica, Arial, sans-serif" font-size="14" font-weight="700" fill="#16324a">One-time import</text>
  <text x="66" y="270" font-family="Helvetica, Arial, sans-serif" font-size="12" fill="#16324a">hr/okta-import.csv</text>

  <line x1="140" y1="204" x2="140" y2="220" stroke="#3d6f9c" stroke-width="1.2"/>
  <polygon points="134,220 146,220 140,228" fill="#3d6f9c"/>

  <rect x="968" y="220" width="256" height="72" rx="36" fill="#d7e8fb" stroke="#3d6f9c"/>
  <text x="1004" y="250" font-family="Helvetica, Arial, sans-serif" font-size="14" font-weight="700" fill="#16324a">IAM administrator</text>
  <text x="1004" y="270" font-family="Helvetica, Arial, sans-serif" font-size="12" fill="#16324a">admin@ and breakglass@</text>

  <line x1="968" y1="256" x2="834" y2="256" stroke="#3d6f9c" stroke-width="1.2"/>
  <line x1="822" y1="208" x2="822" y2="256" stroke="#3d6f9c" stroke-width="1.2"/>
  <polygon points="828,250 828,262 816,256" fill="#3d6f9c"/>
  <text x="840" y="248" font-family="Helvetica, Arial, sans-serif" font-size="11" fill="#3d6f9c">administers</text>

  <rect x="32" y="332" width="1216" height="380" rx="12" fill="#ffffff" stroke="#d9d0e2"/>
  <text x="52" y="360" font-family="Helvetica, Arial, sans-serif" font-size="13" font-weight="700" fill="#6b6474">RECORDS. THESE FILES EXIST</text>

  <rect x="52" y="380" width="280" height="72" rx="8" fill="#d9f2df" stroke="#3d8b4f"/>
  <text x="68" y="408" font-family="Helvetica, Arial, sans-serif" font-size="15" font-weight="700" fill="#1d4a28">Domain setup</text>
  <text x="68" y="430" font-family="Helvetica, Arial, sans-serif" font-size="13" fill="#1d4a28">00-domain.md</text>

  <rect x="348" y="380" width="280" height="72" rx="8" fill="#d9f2df" stroke="#3d8b4f"/>
  <text x="364" y="408" font-family="Helvetica, Arial, sans-serif" font-size="15" font-weight="700" fill="#1d4a28">Org</text>
  <text x="364" y="430" font-family="Helvetica, Arial, sans-serif" font-size="13" fill="#1d4a28">01-org.md</text>

  <rect x="644" y="380" width="280" height="72" rx="8" fill="#d9f2df" stroke="#3d8b4f"/>
  <text x="660" y="408" font-family="Helvetica, Arial, sans-serif" font-size="15" font-weight="700" fill="#1d4a28">Break-glass</text>
  <text x="660" y="430" font-family="Helvetica, Arial, sans-serif" font-size="13" fill="#1d4a28">02-break-glass.md</text>

  <rect x="940" y="380" width="280" height="72" rx="8" fill="#d9f2df" stroke="#3d8b4f"/>
  <text x="956" y="408" font-family="Helvetica, Arial, sans-serif" font-size="15" font-weight="700" fill="#1d4a28">IAM design</text>
  <text x="956" y="430" font-family="Helvetica, Arial, sans-serif" font-size="13" fill="#1d4a28">02-design.md</text>

  <rect x="52" y="472" width="280" height="72" rx="8" fill="#d9f2df" stroke="#3d8b4f"/>
  <text x="68" y="500" font-family="Helvetica, Arial, sans-serif" font-size="15" font-weight="700" fill="#1d4a28">Okta foundation</text>
  <text x="68" y="522" font-family="Helvetica, Arial, sans-serif" font-size="13" fill="#1d4a28">01-foundation.md</text>

  <rect x="348" y="472" width="280" height="72" rx="8" fill="#d9f2df" stroke="#3d8b4f"/>
  <text x="364" y="500" font-family="Helvetica, Arial, sans-serif" font-size="15" font-weight="700" fill="#1d4a28">SaaS onboarding</text>
  <text x="364" y="522" font-family="Helvetica, Arial, sans-serif" font-size="13" fill="#1d4a28">02-onboarding.md, SAML and OIDC</text>

  <rect x="644" y="472" width="280" height="72" rx="8" fill="#d9f2df" stroke="#3d8b4f"/>
  <text x="660" y="500" font-family="Helvetica, Arial, sans-serif" font-size="15" font-weight="700" fill="#1d4a28">SCIM provisioning</text>
  <text x="660" y="522" font-family="Helvetica, Arial, sans-serif" font-size="13" fill="#1d4a28">03-scim.md</text>

  <rect x="940" y="472" width="280" height="72" rx="8" fill="#d9f2df" stroke="#3d8b4f"/>
  <text x="956" y="500" font-family="Helvetica, Arial, sans-serif" font-size="15" font-weight="700" fill="#1d4a28">Joiner, mover, leaver</text>
  <text x="956" y="522" font-family="Helvetica, Arial, sans-serif" font-size="13" fill="#1d4a28">04-jml.md</text>

  <rect x="52" y="564" width="280" height="72" rx="8" fill="#d9f2df" stroke="#3d8b4f"/>
  <text x="68" y="592" font-family="Helvetica, Arial, sans-serif" font-size="15" font-weight="700" fill="#1d4a28">Service identity</text>
  <text x="68" y="614" font-family="Helvetica, Arial, sans-serif" font-size="13" fill="#1d4a28">scripts-identity.md, svc-jml-sync</text>

  <rect x="348" y="564" width="280" height="72" rx="8" fill="#d9f2df" stroke="#3d8b4f"/>
  <text x="364" y="592" font-family="Helvetica, Arial, sans-serif" font-size="15" font-weight="700" fill="#1d4a28">MFA reset procedure</text>
  <text x="364" y="614" font-family="Helvetica, Arial, sans-serif" font-size="13" fill="#1d4a28">mfa-reset.md</text>

  <rect x="644" y="564" width="280" height="72" rx="8" fill="#d9f2df" stroke="#3d8b4f"/>
  <text x="660" y="592" font-family="Helvetica, Arial, sans-serif" font-size="15" font-weight="700" fill="#1d4a28">Incidents</text>
  <text x="660" y="614" font-family="Helvetica, Arial, sans-serif" font-size="13" fill="#1d4a28">incidents 00 through 07</text>

  <rect x="940" y="564" width="280" height="72" rx="8" fill="#d9f2df" stroke="#3d8b4f"/>
  <text x="956" y="592" font-family="Helvetica, Arial, sans-serif" font-size="15" font-weight="700" fill="#1d4a28">Evidence</text>
  <text x="956" y="614" font-family="Helvetica, Arial, sans-serif" font-size="13" fill="#1d4a28">tasks 0.2 to 6.6</text>

  <text x="52" y="668" font-family="Helvetica, Arial, sans-serif" font-size="13" fill="#6b6474">week-1.md is the session log. saas-onboarding.md is the Rostr runbook. entitlements.js writes the review CSVs.</text>

  <rect x="32" y="732" width="1216" height="220" rx="12" fill="#ffffff" stroke="#d9d0e2"/>
  <text x="52" y="760" font-family="Helvetica, Arial, sans-serif" font-size="13" font-weight="700" fill="#6b6474">ALSO BUILT</text>

  <rect x="52" y="784" width="370" height="78" rx="8" fill="#d9f2df" stroke="#3d8b4f"/>
  <text x="68" y="814" font-family="Helvetica, Arial, sans-serif" font-size="15" font-weight="700" fill="#1d4a28">Access Request</text>
  <text x="68" y="836" font-family="Helvetica, Arial, sans-serif" font-size="13" fill="#1d4a28">flow built. Ticket 357784 closed</text>

  <rect x="446" y="784" width="370" height="78" rx="8" fill="#d9f2df" stroke="#3d8b4f"/>
  <text x="462" y="814" font-family="Helvetica, Arial, sans-serif" font-size="15" font-weight="700" fill="#1d4a28">Stale-Access</text>
  <text x="462" y="836" font-family="Helvetica, Arial, sans-serif" font-size="13" fill="#1d4a28">a script, not a Workflow</text>

  <rect x="840" y="784" width="376" height="78" rx="8" fill="#d9f2df" stroke="#3d8b4f"/>
  <text x="856" y="814" font-family="Helvetica, Arial, sans-serif" font-size="15" font-weight="700" fill="#1d4a28">Phase 6 incidents</text>
  <text x="856" y="836" font-family="Helvetica, Arial, sans-serif" font-size="13" fill="#1d4a28">six drills written</text>

  <text x="52" y="894" font-family="Helvetica, Arial, sans-serif" font-size="13" fill="#6b6474">hr-sync is a script, not one of the flows. Access Request joins at Okta from a ticket. Stale-Access does not sit on the arrow above.</text>
  <text x="52" y="918" font-family="Helvetica, Arial, sans-serif" font-size="13" fill="#6b6474">Samir and Thomas are deactivated. Jonah and Priya are in Operations. The documented lab is complete.</text>
</svg>
